<svg width="24" height="24" viewBox="0 0 24 24" fill="none" xmlns="http://www.w3.org/2000/svg">
<path d="M4.20002 19.8003C4.54438 19.4146 6.85787 17.5977 8.00778 16.702C8.42658 16.3757 8.9403 16.2003 9.47116 16.2003C10.7548 16.2003 13.2284 16.2003 14.5183 16.2003C15.0553 16.2003 15.5742 16.3832 16.0066 16.7017C17.4914 17.7956 18.8833 18.6106 20.4 19.8003M6.00002 21.6H18C19.9882 21.6 21.6 19.9882 21.6 18V6.00002C21.6 4.0118 19.9882 2.40002 18 2.40002H6.00002C4.0118 2.40002 2.40002 4.0118 2.40002 6.00002V18C2.40002 19.9882 4.0118 21.6 6.00002 21.6ZM15.4386 9.27206C15.4386 7.44055 13.8924 5.94411 12 5.94411C10.1076 5.94411 8.56147 7.44055 8.56147 9.27206C8.56147 11.1036 10.1076 12.6 12 12.6C13.8924 12.6 15.4386 11.1036 15.4386 9.27206Z" stroke="white"/>
</svg>
