<svg width="40" height="40" viewBox="0 0 40 40" fill="none" xmlns="http://www.w3.org/2000/svg">
<path d="M11 14.6667V13.1429C11 8.078 15.0143 4 20 4C24.9857 4 29 8.078 29 13.1429V14.6667M11 14.6667C9.35 14.6667 8 16.0381 8 17.7143V32.9524C8 34.6286 9.35 36 11 36H29C30.65 36 32 34.6286 32 32.9524V17.7143C32 16.0381 30.65 14.6667 29 14.6667M11 14.6667H29M20 22.2857C21.65 22.2857 23 23.6571 23 25.3333C23 27.0095 21.65 28.3809 20 28.3809C18.35 28.3809 17 27.0095 17 25.3333C17 23.6571 18.35 22.2857 20 22.2857Z" stroke="#ACACAC" stroke-width="3"/>
</svg>
