<svg width="40" height="40" viewBox="0 0 40 40" fill="none" xmlns="http://www.w3.org/2000/svg">
<path d="M19.1584 4.52318C19.5026 3.82561 20.4974 3.82561 20.8416 4.52318L25.2983 13.5534C25.435 13.8304 25.6993 14.0224 26.005 14.0668L35.9704 15.5149C36.7402 15.6267 37.0476 16.5728 36.4906 17.1158L29.2795 24.1448C29.0583 24.3604 28.9574 24.6711 29.0096 24.9755L30.7119 34.9007C30.8434 35.6674 30.0386 36.2521 29.3501 35.8901L20.4367 31.2041C20.1633 31.0603 19.8367 31.0603 19.5633 31.2041L10.6499 35.8901C9.96135 36.2521 9.15661 35.6674 9.28811 34.9007L10.9904 24.9755C11.0426 24.6711 10.9417 24.3604 10.7205 24.1448L3.50943 17.1158C2.95239 16.5728 3.25977 15.6267 4.02959 15.5149L13.995 14.0668C14.3007 14.0224 14.565 13.8304 14.7017 13.5534L19.1584 4.52318Z" stroke="#9E9F5F" stroke-opacity="0.6" stroke-width="3" stroke-linejoin="round"/>
</svg>
